<?xml version="1.0" encoding="UTF-8"?>
<svg width="170px" height="198px" viewBox="0 0 170 198" version="1.1" xmlns="http://www.w3.org/2000/svg" xmlns:xlink="http://www.w3.org/1999/xlink">
    <!-- Generator: sketchtool 61.2 (101010) - https://sketch.com -->
    <title>22ABE1A7-38B9-4771-8949-CE4533AF762D@2x</title>
    <desc>Created with sketchtool.</desc>
    <g id="Page-1" stroke="none" stroke-width="1" fill="none" fill-rule="evenodd">
        <g id="01" transform="translate(-373.000000, -299.000000)">
            <g id="logo" transform="translate(373.000000, 299.000000)">
                <path d="M100.089895,11.3153694 C126.132436,31.7255318 143.33324,50.3530557 151.692308,67.1979412 C160.810636,85.5728613 166.711569,116.544324 169.395106,160.112331 L169.395104,160.112331 C169.866077,167.758713 166.658387,175.170516 160.761659,180.061076 C141.518967,196.020359 116.26508,204 85,204 C54.0301473,204 28.9585002,196.170346 9.78505875,180.511039 L9.78505972,180.511037 C3.55805432,175.425326 0.291227112,167.559447 1.08319026,159.558644 C5.48358427,115.103688 12.0968798,83.9830963 20.9230769,66.196869 C28.9869059,49.9469377 45.3889021,31.7468285 70.1290656,11.5965411 L70.1290648,11.5965401 C78.8238882,4.51480876 91.2636966,4.39806602 100.089895,11.3153694 Z" id="Triangle-Copy" fill="#FFFFFF" transform="translate(85.000000, 102.000000) scale(1, -1) translate(-85.000000, -102.000000) "></path>
                <path d="M26.9938347,69.4862266 C32.0967779,61.9253924 44.6904039,45.0915952 69.6005859,25.6647463 C78.2932123,17.948535 91.8925448,18.4679706 101.019871,25.6647463 C126.542334,45.7888686 143.433146,64.1727092 151.692308,80.8162682 C160.779889,99.1292266 166.671736,129.953918 169.367849,173.290344 C169.824519,180.630522 166.890562,187.774875 161.406964,192.675581 C158.307148,195.445895 156.426124,197.069917 155.763891,197.547646 C120.647137,172.030358 97.0591736,153.275308 85,141.282498 C68.4436054,124.817215 49.108217,100.885125 26.9938347,69.4862266 Z" id="Path" fill="#C1DEFF" opacity="0.14281064" transform="translate(98.204037, 108.809163) scale(1, -1) translate(-98.204037, -108.809163) "></path>
                <g id="Group-2" transform="translate(66.111111, 57.446940)" fill="#0E85FF">
                    <path d="M18.8888889,20.7777778 C22.0185025,20.7777778 24.5555556,23.3148309 24.5555556,26.4444444 L24.5555556,60.4444444 C24.5555556,63.574058 22.0185025,66.1111111 18.8888889,66.1111111 C15.7592753,66.1111111 13.2222222,63.574058 13.2222222,60.4444444 L13.2222222,26.4444444 C13.2222222,23.3148309 15.7592753,20.7777778 18.8888889,20.7777778 Z" id="Rectangle"></path>
                    <circle id="Oval" cx="18.8888889" cy="18.8888889" r="18.8888889"></circle>
                </g>
            </g>
        </g>
    </g>
</svg>