<?xml version="1.0" encoding="UTF-8"?>
<svg width="24px" height="24px" viewBox="0 0 24 24" version="1.1" xmlns="http://www.w3.org/2000/svg" xmlns:xlink="http://www.w3.org/1999/xlink">
    <!-- Generator: sketchtool 61.2 (101010) - https://sketch.com -->
    <title>AFB96BB8-D0A7-49F7-BF1E-3AEC89D48F95@2x</title>
    <desc>Created with sketchtool.</desc>
    <g id="Page-1" stroke="none" stroke-width="1" fill="none" fill-rule="evenodd">
        <g id="01" transform="translate(-994.000000, -426.000000)">
            <g id="Group" transform="translate(705.000000, 278.000000)">
                <g id="Password" transform="translate(1.000000, 133.000000)">
                    <g id="eye" transform="translate(288.000000, 15.000000)">
                        <g id="eye_on">
                            <path d="M12,7 C8.56090825,7 5.44216017,8.86519623 3.14084075,11.8947713 C2.95305308,12.1429775 2.95305308,12.4897361 3.14084075,12.7379422 C5.44216017,15.7711674 8.56090825,17.6363636 12,17.6363636 C15.4390917,17.6363636 18.5578398,15.7711674 20.8591593,12.7415923 C21.0469469,12.4933862 21.0469469,12.1466276 20.8591593,11.8984214 C18.5578398,8.86519623 15.4390917,7 12,7 Z M12.2467014,16.0631746 C9.96379257,16.2055282 8.0785517,14.3403319 8.22215403,12.0736258 C8.33998159,10.2047794 9.86805769,8.68999189 11.7532986,8.57318899 C14.0362074,8.43083547 15.9214483,10.2960317 15.777846,12.5627379 C15.6563363,14.4279341 14.1282602,15.9427217 12.2467014,16.0631746 Z M12.132556,14.3330318 C10.9027309,14.4096837 9.88646824,13.4059088 9.96747469,12.1867786 C10.0300706,11.1793536 10.8548635,10.3653834 11.8711261,10.2996818 C13.1009512,10.2230299 14.1172139,11.2268048 14.0362074,12.445935 C13.9699294,13.45701 13.1451365,14.2709802 12.132556,14.3330318 Z" id="eye-on" fill="#979797"></path>
                            <rect id="Rectangle" fill-opacity="0.01" fill="#FFFFFF" fill-rule="nonzero" x="0" y="0" width="24" height="24"></rect>
                        </g>
                    </g>
                </g>
            </g>
        </g>
    </g>
</svg>