<?xml version="1.0" encoding="UTF-8"?>
<svg width="177px" height="66px" viewBox="0 0 177 66" version="1.1" xmlns="http://www.w3.org/2000/svg" xmlns:xlink="http://www.w3.org/1999/xlink">
    <!-- Generator: sketchtool 61.2 (101010) - https://sketch.com -->
    <title>E1CB3360-B06A-4CAD-9D1B-7BC0A35B38EA@2x</title>
    <desc>Created with sketchtool.</desc>
    <g id="Page-1" stroke="none" stroke-width="1" fill="none" fill-rule="evenodd">
        <g id="02-copy" transform="translate(-210.000000, -31.000000)">
            <g id="Header" transform="translate(101.000000, 31.000000)">
                <g id="logo" transform="translate(109.000000, 0.000000)">
                    <path d="M33.3632994,3.77179055 C42.0441457,10.5751777 47.7777467,16.7843521 50.5641026,22.3993137 C53.6035454,28.5242871 55.570523,38.8481081 56.4650352,53.3707769 L56.4650348,53.3707769 C56.6220258,55.919571 55.5527957,58.390172 53.5872197,60.0203587 C47.1729888,65.3401196 38.7550267,68 28.3333333,68 C18.0100456,68 9.65282775,65.3901136 3.26167977,60.1703409 L3.26168338,60.1703365 C1.18601727,58.4751003 0.0970762615,55.8531431 0.361063767,53.1862112 C1.82786177,38.3678944 4.03229351,27.994365 6.97435897,22.065623 C9.66230243,16.6489783 15.1296359,10.5822741 23.3763594,3.86551027 L23.3763623,3.8655138 C26.274635,1.50493833 30.4212351,1.46602421 33.3632994,3.77179055 Z" id="Triangle-Copy" fill="#0E85FF" transform="translate(28.333333, 34.000000) scale(1, -1) translate(-28.333333, -34.000000) "></path>
                    <path d="M8.99794492,23.1620755 C10.698926,20.6417975 14.8968013,15.0305317 23.2001953,8.55491544 C26.0977374,5.982845 30.6308483,6.15599021 33.6732905,8.55491544 C42.1807779,15.2629562 47.8110486,21.3909031 50.5641026,26.9387561 C53.5932962,33.0430755 55.5572452,43.3179728 56.4559495,57.7634478 C56.608173,60.210174 55.6301874,62.5916249 53.8023215,64.2251936 C52.7690493,65.1486317 52.1420412,65.6899723 51.9212971,65.8492153 C40.2157125,57.3434526 32.3530579,51.0917695 28.3333333,47.094166 C22.8145351,41.6057384 16.3694057,33.6283749 8.99794492,23.1620755 Z" id="Path" fill="#C1DEFF" opacity="0.14281064" transform="translate(32.734679, 36.269721) scale(1, -1) translate(-32.734679, -36.269721) "></path>
                    <g id="Group-2" transform="translate(22.037037, 19.148980)" fill="#F5F7FB">
                        <path d="M6.2962963,6.92592593 C7.33950082,6.92592593 8.18518519,7.77161029 8.18518519,8.81481481 L8.18518519,20.1481481 C8.18518519,21.1913527 7.33950082,22.037037 6.2962963,22.037037 C5.25309177,22.037037 4.40740741,21.1913527 4.40740741,20.1481481 L4.40740741,8.81481481 C4.40740741,7.77161029 5.25309177,6.92592593 6.2962963,6.92592593 Z" id="Rectangle"></path>
                        <circle id="Oval" cx="6.2962963" cy="6.2962963" r="6.2962963"></circle>
                    </g>
                    <text id="PASS-MANAGER" font-family="OpenSans-Bold, Open Sans" font-size="20" font-weight="bold" letter-spacing="1" fill="#0E85FF">
                        <tspan x="70" y="29">PASS </tspan>
                        <tspan x="70" y="56">MANAGER</tspan>
                    </text>
                </g>
            </g>
        </g>
    </g>
</svg>